Coordinates
version=1
nRows=5
nColumns=42
inDegrees=yes

Units are S.I. units (second, meters, Newtons, ...)
If the header above contains a line with 'inDegrees', this indicates whether rotational values are in degrees (yes) or radians (no).

endheader
time	pelvis_tilt	pelvis_list	pelvis_rotation	pelvis_tx	pelvis_ty	pelvis_tz	hip_flexion_r	hip_adduction_r	hip_rotation_r	knee_angle_r	knee_adduction_r	knee_angle_r_beta	ankle_angle_r	subtalar_angle_r	mtp_angle_r	hip_flexion_l	hip_adduction_l	hip_rotation_l	knee_angle_l	knee_adduction_l	knee_angle_l_beta	ankle_angle_l	subtalar_angle_l	mtp_angle_l	lumbar_extension	lumbar_bending	lumbar_rotation	arm_flex_r	arm_add_r	arm_rot_r	elbow_flex_r	pro_sup_r	wrist_flex_r	wrist_dev_r	arm_flex_l	arm_add_l	arm_rot_l	elbow_flex_l	pro_sup_l	wrist_flex_l	wrist_dev_l
      1.94000000	     -8.14315139	     -1.55119243	     -3.17910483	      0.42316005	      0.91296055	     -0.07550258	    -10.91322116	      9.49918213	     -0.28708205	      1.50968928	     -6.45463919	      0.02634905	     21.94322513	      6.37776960	     -7.50432824	     33.68778098	     -2.30805374	     -1.27119004	      5.25480673	     -1.79391562	      0.09171368	      1.17386462	      0.05754848	     -7.50432824	     -3.00940443	     -0.87933657	      2.37606651	     10.13885104	    -14.15933786	     -1.95539921	     38.87809335	     90.00000001	      0.00000000	      0.00000000	    -14.29865753	     -9.08919783	    -27.38863717	     12.66675131	     90.00000001	      0.00000000	      0.00000000
      1.95000000	     -8.10156380	     -1.36501097	     -3.37537506	      0.43513550	      0.91156807	     -0.07567975	    -11.63521180	      9.06979491	      0.08584928	      1.84635304	     -6.24694625	      0.03222494	     21.85419091	      6.05498300	     -7.50426278	     33.81456920	     -2.08220277	     -1.40289718	      6.16883297	     -1.85873505	      0.10766645	      0.61908371	     -0.69915017	     -7.50426278	     -3.05547647	     -1.28943908	      2.50728181	      9.95052112	    -14.05252714	     -2.11892278	     38.90246910	     90.00000001	      0.00000000	      0.00000000	    -14.13683289	     -9.26520992	    -27.32350531	     12.46490406	     90.00000001	      0.00000000	      0.00000000
      1.96000000	     -8.07120900	     -1.13645843	     -3.53246089	      0.44719184	      0.91042470	     -0.07584374	    -12.23331348	      8.60927962	      0.38949061	      2.38723825	     -6.07657296	      0.04166517	     21.67088077	      5.82292089	     -7.50421533	     33.89587998	     -1.83443449	     -0.98842523	      7.28644625	     -1.82060131	      0.12717248	      0.02045011	     -1.32940609	     -7.50421533	     -3.08650109	     -1.77416055	      2.60354224	      9.72531590	    -13.91378514	     -2.23064629	     38.84739121	     90.00000001	      0.00000000	      0.00000000	    -13.96418851	     -9.46605241	    -27.25354214	     12.41234820	     90.00000001	      0.00000000	      0.00000000
      1.97000000	     -8.27735179	     -0.93905749	     -3.52853843	      0.45878444	      0.90950670	     -0.07618013	    -12.80964558	      8.21152277	      2.14077752	      2.54310046	     -5.84393507	      0.04438548	     20.40474866	      2.86216496	     -7.50388282	     33.88706964	     -1.45298895	      2.04987367	      8.00133226	     -1.73113164	      0.13964959	     -3.29747396	     -7.70133973	     -7.50388282	     -2.92007344	     -2.22755936	      2.54541816	      9.47451130	    -13.62247658	     -2.75880185	     38.59974710	     90.00000001	      0.00000000	      0.00000000	    -13.50328685	     -9.71475673	    -27.51075404	     12.03120819	     90.00000001	      0.00000000	      0.00000000
      1.98000000	     -8.26479095	     -0.60021843	     -3.49539583	      0.47104411	      0.90906907	     -0.07663509	    -13.30568751	      7.59045160	      2.59907911	      3.21069297	     -5.51919687	      0.05603716	     19.73183093	      1.86169363	     -7.50359582	     33.98140236	     -1.03435761	      3.53274149	      9.55536534	     -1.44844172	      0.16677259	     -5.02659826	    -10.53830101	     -7.50359582	     -2.93403708	     -2.86104333	      2.44842922	      9.13142964	    -13.32782475	     -3.09425991	     38.33838275	     90.00000001	      0.00000000	      0.00000000	    -13.13197228	     -9.98138233	    -27.46383818	     11.89726501	     90.00000001	      0.00000000	      0.00000000
